<?xml version="1.0" encoding="utf-8"?>
<!-- Generator: Adobe Illustrator 16.0.0, SVG Export Plug-In . SVG Version: 6.00 Build 0)  -->
<!DOCTYPE svg PUBLIC "-//W3C//DTD SVG 1.1//EN" "http://www.w3.org/Graphics/SVG/1.1/DTD/svg11.dtd">
<svg version="1.1" id="Layer_1" xmlns="http://www.w3.org/2000/svg" xmlns:xlink="http://www.w3.org/1999/xlink" x="0px" y="0px"
	 width="560px" height="560px" viewBox="0 0 560 560" enable-background="new 0 0 560 560" xml:space="preserve">
<path fill="#4A90E2" d="M555.726,0.218C395.195,0.169,235.381,0.174,74.846,0.174c-22.961,0-46.316-0.018-69.277,0.049
	C4.115,0.227,0.8,0.901,0.8,1.269v558.559h558.4V1.269C559.2,0.901,557.364,0.218,555.726,0.218z M499.282,505.167
	c-144.656-0.169-289.266-0.133-433.921-0.133c-6.984,0-6.953-0.015-6.953-7.211V64.413c0.004-7.122-0.066-5.372,6.993-5.372h433.417
	c7.259,0,7.2-1.755,7.2,5.721v216.433c0,72.326-0.029,144.651,0.159,216.975C506.196,503.678,504.898,505.171,499.282,505.167
	L499.282,505.167z M248.18,172.688c-29.551-6.927-59.297-3.51-89.012-0.474c-6.307,0.646-7.512,3.345-7.495,8.943
	c0.191,67.394-0.194,134.787-0.194,202.18v3.652h39.886v-79.155c22.159,1.662,42.438,1.268,62.262-5.807
	c31.771-11.336,47.649-35.945,45.935-71.877C298.174,201.132,279.946,180.134,248.18,172.688z M239.524,271.711
	c-14.155,6.9-29.205,6.736-44.339,4.689c-1.181-0.16-2.992-2.266-3-3.476c-0.179-23.625-0.134-47.247-0.134-71.52
	c13.875-2.163,27.033-3.217,40.16,0.08c16.278,4.09,25.722,14.709,27.482,30.655C261.626,249.663,254.167,264.577,239.524,271.711
	L239.524,271.711z M387.106,303.203c-6.511-3.568-13.65-5.971-20.412-9.098c-6.249-2.896-12.557-5.744-18.499-9.201
	c-4.145-2.406-6.027-6.612-6.027-11.571c0-8.385,5.735-15.143,15.529-15.945c7.308-0.599,14.896,0.155,22.132,1.507
	c6.099,1.134,11.881,3.984,18.091,6.182l7.831-27.783c-14.825-7.197-29.911-9.905-45.581-9.351
	c-13.322,0.465-25.767,3.86-37.014,11.518c-21.021,14.31-31.274,52.325,0.227,72.751c7.999,5.189,17.252,8.442,25.931,12.591
	c5.396,2.583,11.029,4.782,16.136,7.854c6.436,3.874,8.624,10.181,7.508,17.461c-1.096,7.158-5.895,11.691-12.568,12.736
	c-7.445,1.172-15.36,1.93-22.683,0.64c-10.366-1.821-20.381-5.678-30.906-8.771c-1.889,7.046-3.683,14.843-6.134,22.426
	c-1.343,4.155-0.555,6.208,3.523,7.835c24.893,9.887,50.229,11.922,75.703,3.178c19.037-6.537,30.645-20.05,32.155-40.635
	C413.519,327.463,404.479,312.731,387.106,303.203L387.106,303.203z"/>
</svg>
