<?xml version="1.0" encoding="utf-8"?>
<!-- Generator: Adobe Illustrator 16.0.0, SVG Export Plug-In . SVG Version: 6.00 Build 0)  -->
<!DOCTYPE svg PUBLIC "-//W3C//DTD SVG 1.1//EN" "http://www.w3.org/Graphics/SVG/1.1/DTD/svg11.dtd">
<svg version="1.1" id="Layer_1" xmlns="http://www.w3.org/2000/svg" xmlns:xlink="http://www.w3.org/1999/xlink" x="0px" y="0px"
	 width="351px" height="351px" viewBox="0 0 351 351" enable-background="new 0 0 351 351" xml:space="preserve">
<g>
	<path fill="#4A90E2" d="M47.802,283.195l2.123-2.973L150.329,89.709l0.212-2.018l-44.26-83.137
		c-3.708-6.964-14.148-5.204-15.365,2.592L47.802,283.195z"/>
	<path fill="#4A90E2" d="M182.807,150.578l32.955-33.751l-32.964-62.931c-3.13-5.957-11.867-5.974-14.963,0l-17.612,33.589v2.861
		L182.807,150.578z"/>
	<path fill="#4A90E2" d="M186.923,347.748L303.198,282.9L269.993,78.406c-1.039-6.398-8.89-8.929-13.468-4.341L47.802,283.195
		l115.608,64.547C170.717,351.822,179.613,351.824,186.923,347.748z"/>
</g>
</svg>
