<?xml version="1.0" encoding="utf-8"?>
<!-- Generator: Adobe Illustrator 16.0.0, SVG Export Plug-In . SVG Version: 6.00 Build 0)  -->
<!DOCTYPE svg PUBLIC "-//W3C//DTD SVG 1.1//EN" "http://www.w3.org/Graphics/SVG/1.1/DTD/svg11.dtd">
<svg version="1.1" id="Layer_1" xmlns="http://www.w3.org/2000/svg" xmlns:xlink="http://www.w3.org/1999/xlink" x="0px" y="0px"
	 width="560px" height="560px" viewBox="0 0 560 560" enable-background="new 0 0 560 560" xml:space="preserve">
<path fill="#4A90E2" d="M0.248,0.164v558.577c4.44,0.365,4.396,1.044,6.035,1.044c161.052,0.049,322.669,0.049,483.721,0.049
	c22.175,0,43.778,0.018,65.956-0.049c1.458-0.005,3.792-0.679,3.792-1.044c-0.004-186.317-0.004-372.077-0.004-558.577H0.248z
	 M506.462,279.533v215.591c0,7.495-1.122,6.816-8.348,6.816H65.838c-7.225,0-7.864,0.684-7.864-6.812V63.396
	c0-7.5,0.64-9.947,8.41-9.947H497.57c7.771,0,8.893,2.447,8.893,10.493L506.462,279.533L506.462,279.533z M281.837,174.977
	c-0.951-2.939-2.718-3.091-5.298-3.077c-13.828,0.084-27.66,0.306-41.478,0c-4.37-0.094-6.266,1.216-7.615,5.476
	c-19.472,61.212-39.151,122.384-58.761,183.552c-3.198,9.972-6.293,19.985-9.704,30.812c12.926,0,24.738-0.178,36.54,0.114
	c4.01,0.099,5.681-1.221,6.772-4.999c5.054-17.425,10.523-34.73,15.529-52.167c1.176-4.112,3.081-5.223,7.214-5.173
	c19.645,0.23,39.299,0.23,58.943,0c3.823-0.045,5.378,1.189,6.46,4.715c5.386,17.536,11.111,34.965,16.493,52.502
	c1.114,3.622,2.512,5.017,6.69,4.715c5.787-0.421,11.631-0.52,17.451-0.52h20.393l-0.094-1.47
	C328.187,317.935,304.968,246.518,281.837,174.977z M226.716,297.677c9.045-31.083,18.024-61.492,26.871-91.669
	c9.115,30.07,18.387,60.585,27.798,91.669H226.716L226.716,297.677z M359.926,390.927h44.405V231.069h-44.405V390.927z
	 M382.443,166.926c-13.156,0.014-22.87,9.356-22.783,21.918c0.091,12.598,9.423,21.568,22.457,21.589
	c13.548,0.019,23.124-8.948,23.03-21.563C405.051,175.949,395.704,166.913,382.443,166.926z"/>
</svg>
