<?xml version="1.0" encoding="utf-8"?>
<!-- Generator: Adobe Illustrator 16.0.0, SVG Export Plug-In . SVG Version: 6.00 Build 0)  -->
<!DOCTYPE svg PUBLIC "-//W3C//DTD SVG 1.1//EN" "http://www.w3.org/Graphics/SVG/1.1/DTD/svg11.dtd">
<svg version="1.1" id="Layer_1" xmlns="http://www.w3.org/2000/svg" xmlns:xlink="http://www.w3.org/1999/xlink" x="0px" y="0px"
	 width="560px" height="560px" viewBox="0 0 560 560" enable-background="new 0 0 560 560" xml:space="preserve">
<path fill="#4A90E2" d="M0.007,245.231c0,3.136,0.923,5.204,1.44,7.215c3.373,13.082,10.62,24.309,19.219,34.55
	c12.247,14.593,27.247,26.341,42.612,37.388c13.326,9.581,26.926,18.946,40.306,28.456c2.297,1.634,4.469,3.511,6.963,5.514
	c-2.146,1.159-3.93,2.181-5.785,3.121c-17.658,8.957-34.646,18.996-50.306,31.158c-9.438,7.333-18.563,15.125-25.008,25.309
	c-10.37,16.376-14.04,33.823-6.311,52.455c2.257,5.44,5.7,10.143,10.557,13.616c1.574,1.124,3.34,2.239,5.183,2.677
	c4.718,1.108,9.527,1.837,14.304,2.716l13.527-0.009c14.959-1.334,28.576-6.458,40.881-14.95
	c19.232-13.273,32.188-31.07,37.761-53.909c4.049-16.601,4.213-33.22-0.559-49.744c-0.441-1.533-0.999-3.037-1.579-4.521
	c-0.58-1.486-1.262-2.931-2.065-4.781l30.668-17.635l0.459,0.393c-0.557,1.823-1.149,3.643-1.653,5.485
	c-3.644,13.31-6.065,26.85-5.196,40.662c0.928,14.719,5.035,28.495,13.652,40.793c6.967,9.944,23.568,10.315,30.972,0.335
	c2.626-3.547,5.174-7.253,7.086-11.209c5.001-10.325,9.63-20.833,14.407-31.271l0.834-1.908c-0.344,4.941-0.746,9.28-0.928,13.625
	c-0.286,6.783,0.111,13.527,2.43,19.98c1.985,5.521,5.361,9.647,11.688,10.375c4.325,0.495,7.773-1.485,10.953-3.996
	c4.97-3.921,9.006-8.765,12.003-14.27c8.478-15.568,17.184-31.046,24.868-47.009c8.314-17.266,15.584-35.035,23.307-52.594
	l1.273-3.113c1.824,7.167,3.098,14.188,5.439,20.833c2.719,7.711,6.088,15.24,9.754,22.56c1.736,3.457,1.533,5.7-0.869,8.6
	c-10.062,12.132-19.949,24.409-29.848,36.676c-2.189,2.707-4.371,5.463-6.195,8.42c-1.102,1.8-1.834,3.988-2.141,6.084
	c-0.596,4.006,1.883,7.868,6.168,8.791c3.918,0.844,8.086,1.155,12.078,0.86c13.811-1.018,26.354-5.864,37.441-14.079
	c14.365-10.644,18.979-25.165,15.498-42.377c-0.939-4.669-2.604-9.21-4.223-13.71c-0.729-2.029-0.777-3.452,0.547-5.343
	c11.486-16.4,21.299-33.8,30.424-51.601c0.361-0.699,0.73-1.399,1.363-2.148c2.959,15.387,7.41,30.217,15.385,43.673
	c-4.068,3.921-8.096,7.476-11.74,11.392c-8.021,8.625-14.979,17.991-18.609,29.415c-1.562,4.924-2.764,9.928-2.066,15.187
	c1.08,8.167,7.77,13.475,15.803,11.614c17.189-3.979,32.029-12.078,42.871-26.428c7.297-9.659,7.961-20.436,4.906-31.724
	c-0.838-3.069-1.834-6.088-2.902-9.607c4.24-1.314,8.375-2.896,12.652-3.871c22.207-5.065,44.174-4.184,65.572,3.837
	c12.49,4.683,22.586,12.519,28.57,24.847c7.312,15.071,3.27,29.37-10.938,38.896c-1.324,0.889-2.84,1.589-3.938,2.698
	c-0.674,0.684-1.08,2.048-0.914,2.988c0.094,0.549,1.543,1.236,2.377,1.227c4.67-0.035,8.457-2.482,12.09-5
	c9.109-6.301,15.754-14.779,17.186-25.942l0.281-0.839l-0.344-7.271c-0.139-0.42,0.104-0.833,0.072-1.15
	c-1.936-16.257-10.619-28.865-23.25-38.75c-14.631-11.438-31.904-16.149-50.172-16.895c-14.889-0.605-29.521,1.605-43.553,6.703
	c-4.002,1.45-7.967,3.167-11.99,4.786c-0.539-0.978-1.119-1.914-1.596-2.882c-4.131-8.456-9.135-16.539-10.24-26.234
	c-0.785-6.886-1.75-13.766-0.111-20.574c1.574-6.553,3.625-12.99,5.557-19.453c0.994-3.328,0.293-5.192-2.881-6.691
	c-1.105-0.521-2.311-0.977-3.506-1.15c-7.805-1.133-15.504-0.484-23.064,1.713c-2.676,0.78-4.619,2.279-5.213,5.24
	c-0.338,1.7-1.031,3.327-1.512,5.005c-1.977,6.973-3.377,14.076-6.57,20.718c-8.002,16.657-17.135,32.688-26.484,48.602
	c-1.012,1.719-2.078,3.402-3.354,5.486c-3.283-6.869-6.783-13.032-7.846-20.259c-1.199-8.171-2.145-16.329-0.111-24.438
	c1.514-6.048,3.488-11.983,5.307-17.951c0.861-2.837,0.465-4.326-2.104-5.821c-1.299-0.753-2.766-1.422-4.229-1.641
	c-8.096-1.199-16.07-0.571-23.881,1.953c-2.42,0.785-3.691,2.352-4.432,4.849c-2.18,7.368-4.033,14.914-7.088,21.921
	c-12.373,28.367-25.104,56.586-37.818,84.801c-2.654,5.893-5.763,11.578-8.756,17.314c-0.758,1.454-1.864,2.732-2.811,4.098
	c-0.759-0.896-1.053-1.511-1.049-2.127c0.023-3.626-0.41-7.357,0.282-10.863c2.091-10.606,4.5-21.155,7.037-31.663
	c2.097-8.68,4.537-17.277,6.858-25.899c0.781-2.885,0.796-5.584-1.279-8.011c-3.482-4.062-10.762-4.954-15.079-1.823l-1.909,1.079
	l0.37-3.077c0.91-6.598,1.092-13.171-0.718-19.67c-2.257-8.1-8.037-12.76-16.44-12.502c-3.916,0.121-8.028,0.79-11.654,2.217
	c-15.25,5.977-26.975,16.561-36.956,29.294c-0.905,1.155-2.101,2.208-3.377,2.918c-12.902,7.153-25.846,14.218-38.785,21.311
	l-14.401,7.89c-3.862-3.684-7.373-7.506-11.354-10.749c-12.164-9.919-24.522-19.592-36.771-29.401
	c-10.855-8.69-21.373-17.744-29.419-29.256c-5.985-8.564-9.843-17.935-10.213-28.522c-0.468-13.492,3.358-25.82,10.227-37.296
	c8.787-14.685,20.771-26.467,33.946-37.14c13.938-11.284,29.015-20.864,44.637-29.61c21.859-12.234,44.343-23.063,68.449-30.213
	c24.718-7.333,49.798-11.53,75.667-8.604c10.169,1.151,20.044,3.479,29.111,8.452c6.945,3.805,12.641,8.786,15.289,16.574
	c2.613,7.663,2.533,15.428,0.723,23.21c-3.68,15.763-12.309,28.755-23.17,40.364c-17.814,19.03-39.543,31.988-64.006,40.547
	c-14.118,4.938-28.64,8.038-43.554,9.291c-12.172,1.021-24.09-0.059-35.615-4.29c-7.631-2.808-14.276-7.097-19.619-13.323
	c-0.954-1.115-2.176-2.324-3.956-1.28c-1.744,1.026-2.052,2.687-1.468,4.367c0.977,2.792,1.877,5.7,3.398,8.196
	c3.823,6.268,9.396,10.812,15.535,14.711c11.788,7.496,24.963,10.018,38.625,10.601c20.73,0.896,40.958-2.197,60.898-7.76
	c28.469-7.938,53.222-21.962,73.074-44.084c16.529-18.421,28.336-39.209,30.865-64.311c1.234-12.252-0.082-24.255-5.816-35.432
	c-6.223-12.109-16.115-21.114-27.943-27.317c-17.225-9.032-35.814-14.291-55.001-14.291h-19.223
	c-23.236,0-45.702,6.659-67.539,14.603c-16.529,6.019-32.738,13.117-48.474,20.978c-34.267,17.122-66.179,37.768-92.391,66.155
	c-13.059,14.145-24.116,29.749-30.476,48.125c-1.86,5.38-3.626,11.146-4.955,16.708 M124.561,397.78
	c-1.484,19.888-10.5,36.011-25.23,49.068c-8.287,7.343-17.791,12.569-28.861,14.407c-4.014,0.664-8.122,0.824-12.016-0.84
	c-5.553-2.371-6.797-7.3-6.904-12.55c-0.165-8.367,2.766-15.932,6.784-23.131c5.245-9.385,12.934-16.537,21.145-23.221
	c12.935-10.529,26.965-19.44,41.336-27.852l1.084-0.447C124.12,381.425,125.176,389.529,124.561,397.78z M236.768,311.347
	c-1.047,6.354-2.357,12.708-4.214,18.862c-6.413,21.306-14.65,41.952-23.559,62.321c-1.646,3.77-4.04,7.208-6.124,10.78
	c-0.32,0.553-0.798,1.029-1.261,1.488c-2.579,2.547-5.023,2.413-6.325-0.918c-1.518-3.871-2.449-8.016-3.252-12.114
	c-0.539-2.752-0.41-5.642-0.579-8.461c0.174-20.044,6.288-38.259,16.663-55.216c4.276-6.993,8.934-13.657,16.048-18.081
	c2.185-1.359,4.638-2.453,7.113-3.149C235.069,305.794,237.397,307.547,236.768,311.347L236.768,311.347z M313.322,408.882
	l27.514-32.127C341.982,388.685,321.701,412.504,313.322,408.882z M401.199,387.263c-1.945,1.115-4.064,1.918-6.057,2.948
	c-1.824,0.945-2.426-0.009-2.48-1.578c-0.035-1.066,0.121-2.182,0.416-3.216c3.713-13.104,10.551-24.289,20.725-33.389l0.715-0.366
	C419.357,365.199,413.764,380.064,401.199,387.263L401.199,387.263z"/>
</svg>
