<?xml version="1.0" encoding="utf-8"?>
<!-- Generator: Adobe Illustrator 16.0.0, SVG Export Plug-In . SVG Version: 6.00 Build 0)  -->
<!DOCTYPE svg PUBLIC "-//W3C//DTD SVG 1.1//EN" "http://www.w3.org/Graphics/SVG/1.1/DTD/svg11.dtd">
<svg version="1.1" id="Layer_1" xmlns="http://www.w3.org/2000/svg" xmlns:xlink="http://www.w3.org/1999/xlink" x="0px" y="0px"
	 width="560px" height="560px" viewBox="0 0 560 560" enable-background="new 0 0 560 560" xml:space="preserve">
<path fill="#4A90E2" d="M360.688,344.315c2.135-5.49,4.554-10.894,6.358-16.491c10.196-31.631,20.296-63.284,30.327-94.967
	c3.855-12.171,8.081-24.155,15.666-34.614c11.997-16.53,28.709-25.189,48.487-28.215c7.76-1.186,15.68-1.734,23.533-1.809
	c23.473-0.223,46.956-0.066,70.435-0.044c1.247,0,2.493,0.129,4.266,0.232c-0.575,1.355-0.888,2.34-1.387,3.226
	c-8.712,15.571-17.256,31.236-26.227,46.651c-15.62,26.838-31.269,53.667-47.378,80.211c-10.336,17.02-21.545,33.513-34.258,48.907
	c-9.383,11.355-19.258,22.212-31.85,30.171c-8.579,5.424-17.741,8.596-28.145,8.544c-36.893-0.2-73.785-0.053-110.675-0.105
	c-10.969-0.021-20.357-4.194-28.328-11.604c-11.422-10.611-18.24-24.119-23.82-38.361c-10.179-26.004-15.879-53.263-22.422-80.283
	c-3.067-12.648-6.553-25.197-9.871-37.783c-0.214-0.816-0.633-1.578-1.115-2.75l-2.571,2.416
	c-14.387,14.292-27.057,30.043-38.393,46.786c-3.089,4.564-4.126,10.58-5.852,16.004c-6.345,19.92-12.131,40.034-19.003,59.766
	c-6.583,18.907-18.384,33.942-36.829,42.831c-10.786,5.191-22.303,8-34.269,8.266c-17.738,0.393-35.483,0.438-53.225,0.597
	c-4.243,0.04-4.439-0.308-3.334-4.412c7.608-28.246,17.247-55.771,29.326-82.412c12.452-27.483,27.119-53.692,45.595-77.629
	c12.582-16.299,26.477-31.335,43.867-42.703c8.819-5.762,18.196-10.317,28.866-11.516c1.757-0.201,3.534-0.325,5.299-0.325
	c37.783-0.019,75.567,0.364,113.347-0.174c20.264-0.29,34.936,8.268,45.922,24.578c6.83,10.144,11.721,21.219,15.833,32.658
	c8.296,23.077,13.449,47.004,19.274,70.763c3.333,13.6,7.047,27.101,10.603,40.645c0.269,1.016,0.702,1.987,1.061,2.977
	L360.688,344.315L360.688,344.315z"/>
</svg>
