<?xml version="1.0" encoding="utf-8"?>
<!-- Generator: Adobe Illustrator 16.0.0, SVG Export Plug-In . SVG Version: 6.00 Build 0)  -->
<!DOCTYPE svg PUBLIC "-//W3C//DTD SVG 1.1//EN" "http://www.w3.org/Graphics/SVG/1.1/DTD/svg11.dtd">
<svg version="1.1" id="Layer_1" xmlns="http://www.w3.org/2000/svg" xmlns:xlink="http://www.w3.org/1999/xlink" x="0px" y="0px"
	 width="500px" height="500px" viewBox="0 0 500 500" enable-background="new 0 0 500 500" xml:space="preserve">
<g id="surface1">
	<g>
		<path d="M31.762,0C14.369,0,0,14.369,0,31.762v436.476C0,485.631,14.369,500,31.762,500h436.476
			C485.629,500,500,485.677,500,468.238V31.762C500,14.369,485.677,0,468.238,0H31.762z M31.762,23.81h436.476
			c4.418,0,7.951,3.534,7.951,7.953v436.476c0,4.418-3.533,7.952-7.951,7.952H31.762c-4.418,0-7.953-3.534-7.953-7.952V31.762
			C23.81,27.344,27.344,23.81,31.762,23.81z M226.19,226.19v149.693c0,22.973-8.696,28.878-23.81,28.878
			c-15.811,0-26.785-9.858-34.04-22.646l-37.388,22.646c10.835,22.927,37.388,47.619,74.219,47.619
			c40.736,0,68.637-21.671,68.637-69.243V226.19H226.19z M374.442,226.19c-40.551,0-66.547,25.949-66.547,60.035
			c0,36.972,21.81,54.455,54.596,68.406l11.346,4.884c20.694,9.067,30.925,14.601,30.925,30.179
			c0,12.975-9.859,22.369-28.692,22.369c-22.414,0-33.018-15.205-42.736-31.111l-35.714,23.81
			c13.347,26.367,37.295,47.619,79.474,47.619c43.154,0,75.288-22.414,75.288-63.29c0-37.947-21.764-54.827-60.408-71.383
			l-11.346-4.836c-19.485-8.462-27.948-13.951-27.948-27.576c0-11.021,8.463-19.483,21.764-19.483
			c13.066,0,21.437,5.532,29.203,19.483l35.389-22.692C424.106,236.235,403.32,226.19,374.442,226.19z"/>
	</g>
	<g>
		<path fill="#4A90E2" d="M31.762,0C14.369,0,0,14.369,0,31.762v436.476C0,485.631,14.369,500,31.762,500h436.476
			C485.629,500,500,485.677,500,468.238V31.762C500,14.369,485.677,0,468.238,0H31.762z M31.762,23.81h436.476
			c4.418,0,7.951,3.534,7.951,7.953v436.476c0,4.418-3.533,7.952-7.951,7.952H31.762c-4.418,0-7.953-3.534-7.953-7.952V31.762
			C23.81,27.344,27.344,23.81,31.762,23.81z M226.19,226.19v149.693c0,22.973-8.696,28.878-23.81,28.878
			c-15.811,0-26.785-9.858-34.04-22.646l-37.388,22.646c10.835,22.927,37.388,47.619,74.219,47.619
			c40.736,0,68.637-21.671,68.637-69.243V226.19H226.19z M374.442,226.19c-40.551,0-66.547,25.949-66.547,60.035
			c0,36.972,21.81,54.455,54.596,68.406l11.346,4.884c20.694,9.067,30.925,14.601,30.925,30.179
			c0,12.975-9.859,22.369-28.692,22.369c-22.414,0-33.018-15.205-42.736-31.111l-35.714,23.81
			c13.347,26.367,37.295,47.619,79.474,47.619c43.154,0,75.288-22.414,75.288-63.29c0-37.947-21.764-54.827-60.408-71.383
			l-11.346-4.836c-19.485-8.462-27.948-13.951-27.948-27.576c0-11.021,8.463-19.483,21.764-19.483
			c13.066,0,21.437,5.532,29.203,19.483l35.389-22.692C424.106,236.235,403.32,226.19,374.442,226.19z"/>
	</g>
</g>
</svg>
