<?xml version="1.0" encoding="utf-8"?>
<!-- Generator: Adobe Illustrator 16.0.0, SVG Export Plug-In . SVG Version: 6.00 Build 0)  -->
<!DOCTYPE svg PUBLIC "-//W3C//DTD SVG 1.1//EN" "http://www.w3.org/Graphics/SVG/1.1/DTD/svg11.dtd">
<svg version="1.1" id="Layer_1" xmlns="http://www.w3.org/2000/svg" xmlns:xlink="http://www.w3.org/1999/xlink" x="0px" y="0px"
	 width="560px" height="560px" viewBox="0 0 560 560" enable-background="new 0 0 560 560" xml:space="preserve">
<path fill="#4A90E2" d="M285.769,472.817c-3.72-0.837-7.337-2.001-10.966-3.074l-2.734-0.833c-3.549-1.087-7.066-2.232-10.565-3.436
	l-1.45-0.527c-3.136-1.099-6.233-2.262-9.315-3.453l-2.614-1.027c-3.378-1.335-6.737-2.728-10.052-4.182l-2.008-0.89
	c-2.853-1.295-5.672-2.596-8.486-3.948l-2.453-1.177c-2.203-1.074-4.387-2.213-6.562-3.338c-1.456-0.769-2.938-1.49-4.381-2.289
	c-2.659-1.424-5.269-2.901-7.864-4.41l-2.655-1.482c-3.453-2.03-6.866-4.137-10.241-6.275l-2.761-1.842
	c-2.454-1.576-4.888-3.184-7.292-4.847l-2.349-1.647c-2.317-1.64-4.606-3.297-6.89-4.981l-3.051-2.309
	c-2.083-1.595-4.164-3.202-6.217-4.86l-2.771-2.222c-2.608-2.153-5.192-4.307-7.742-6.525l-0.844-0.715
	c-2.76-2.419-5.467-4.903-8.14-7.397l-2.291-2.204c-1.98-1.886-3.93-3.786-5.848-5.735l-2.29-2.288
	c-2.438-2.497-4.833-5.026-7.183-7.591l-0.35-0.378c-2.483-2.713-4.904-5.484-7.282-8.282l-1.903-2.264
	c-1.775-2.132-3.527-4.295-5.242-6.478l-1.917-2.389c-2.062-2.675-4.079-5.341-6.052-8.059
	C50.435,275.015,30.824,172.346,74.447,88.028l-38.678,49.053c-49.539,71.197-43.371,163.838-5.529,239.496
	c0.898,1.814,1.846,3.598,2.771,5.38l1.775,3.408l1.101,1.964l1.971,3.529c1.177,2.071,2.381,4.13,3.616,6.192l2.057,3.397
	c1.366,2.203,2.762,4.384,4.195,6.558l1.788,2.759c1.967,2.942,3.988,5.882,6.073,8.763l0.174,0.227l1.025,1.384
	c1.797,2.483,3.656,4.936,5.534,7.361l2.08,2.649c1.675,2.107,3.378,4.2,5.116,6.285l1.954,2.335
	c2.327,2.74,4.703,5.465,7.123,8.139l0.145,0.148l0.278,0.306c2.363,2.585,4.789,5.108,7.241,7.633l2.322,2.339
	c1.9,1.913,3.831,3.795,5.78,5.669l2.363,2.246c2.607,2.458,5.238,4.863,7.925,7.217l0.126,0.101l1.379,1.177
	c2.362,2.048,4.77,4.082,7.2,6.076l2.982,2.377c1.982,1.59,3.984,3.15,6.001,4.687l3.207,2.439c2.224,1.642,4.47,3.252,6.735,4.829
	l2.453,1.738l0.673,0.48c2.147,1.477,4.342,2.901,6.539,4.325l2.829,1.887c3.365,2.128,6.783,4.234,10.233,6.271l2.83,1.594
	c2.538,1.465,5.093,2.901,7.684,4.309c1.401,0.752,2.84,1.469,4.25,2.191c1.828,0.956,3.643,1.927,5.5,2.856l1.271,0.615l2.25,1.089
	c2.879,1.375,5.781,2.726,8.713,4.029l1.841,0.826c3.359,1.47,6.748,2.88,10.166,4.228l2.474,0.975
	c3.163,1.217,6.37,2.419,9.59,3.553l1.204,0.416c3.53,1.234,7.102,2.381,10.695,3.498l2.584,0.773
	c3.656,1.1,7.267,2.417,11.04,3.112c239.584,43.69,309.176-143.973,309.176-143.973
	C487.816,475.096,384.068,495.182,285.769,472.817L285.769,472.817z M199.464,278.638c5.369,7.695,11.319,16.85,18.439,23.029
	c2.584,2.845,5.283,5.62,8.04,8.346l2.119,2.088c2.675,2.596,5.399,5.149,8.211,7.629l0.33,0.284l0.081,0.081
	c3.113,2.731,6.324,5.351,9.591,7.937l2.173,1.699c3.274,2.508,6.612,4.972,10.032,7.324l0.291,0.221
	c1.509,1.042,3.05,2.013,4.583,3.017l2.163,1.434c2.443,1.566,4.923,3.094,7.438,4.559l1.05,0.61
	c2.169,1.248,4.371,2.479,6.572,3.675l2.34,1.217c1.522,0.795,3.046,1.608,4.599,2.381l0.696,0.314
	c3.153,1.556,6.339,3.056,9.595,4.471l2.12,0.872c2.596,1.104,5.225,2.183,7.859,3.188l3.367,1.233
	c2.394,0.889,4.798,1.698,7.222,2.511l3.266,1.049c3.445,1.069,6.852,2.419,10.441,3.017
	c184.98,30.648,227.682-111.78,227.682-111.78c-38.492,55.44-113.045,81.899-192.598,61.246c-3.535-0.931-7.018-1.937-10.48-3.028
	l-3.143-1.02c-2.459-0.793-4.904-1.64-7.33-2.524l-3.307-1.23c-2.654-1.024-5.283-2.074-7.889-3.181l-2.123-0.897
	c-3.266-1.42-6.48-2.92-9.646-4.488c-1.637-0.794-3.24-1.634-4.844-2.46l-2.793-1.436c-2.059-1.114-4.105-2.273-6.124-3.459
	l-1.464-0.831c-2.506-1.461-4.968-2.972-7.411-4.527l-2.237-1.492c-1.607-1.041-3.222-2.106-4.803-3.175
	c-3.408-2.354-6.725-4.813-9.997-7.314l-2.25-1.773c-34.821-27.489-62.422-65.066-75.546-107.67
	c-13.753-44.18-10.785-93.776,13.039-134.031l-29.273,41.323c-35.829,51.555-33.88,120.574-5.933,175.099
	C188.303,261.327,193.572,270.199,199.464,278.638L199.464,278.638z M394.434,214.862c1.523,0.562,3.047,1.064,4.592,1.59
	l2.027,0.642c2.174,0.683,4.34,1.477,6.59,1.904c102.133,19.737,129.846-52.413,137.213-63.035
	c-24.268,34.94-65.045,43.327-115.09,31.181c-3.951-0.957-8.301-2.385-12.109-3.737c-4.887-1.743-9.701-3.728-14.377-5.969
	c-8.889-4.272-17.355-9.451-25.209-15.38c-44.777-33.979-72.595-98.79-43.377-151.57l-15.809,21.787
	c-21.119,31.082-23.194,69.684-8.538,104.009C325.803,172.72,357.473,201.302,394.434,214.862z"/>
</svg>
