<?xml version="1.0" encoding="utf-8"?>
<!-- Generator: Adobe Illustrator 16.0.0, SVG Export Plug-In . SVG Version: 6.00 Build 0)  -->
<!DOCTYPE svg PUBLIC "-//W3C//DTD SVG 1.1//EN" "http://www.w3.org/Graphics/SVG/1.1/DTD/svg11.dtd">
<svg version="1.1" id="Layer_1" xmlns="http://www.w3.org/2000/svg" xmlns:xlink="http://www.w3.org/1999/xlink" x="0px" y="0px"
	 width="546.875px" height="546.875px" viewBox="0 0 546.875 546.875" enable-background="new 0 0 546.875 546.875"
	 xml:space="preserve">
<path fill="#4A90E2" d="M326.816,278.264c-10.211-3.359-24.911-2.64-44.102-2.64h-77.09V376.25h82.442
	c12.88,0,21.928-1.377,27.139-2.34c9.183-1.646,16.86-4.83,23.029-8.672c6.165-3.832,11.233-9.646,15.217-16.979
	c3.972-7.334,5.963-15.912,5.963-25.506c0-11.236-2.879-19.863-8.641-28.157C345.017,286.3,337.032,281.623,326.816,278.264z
	 M316.233,232.256c10.138-3.01,17.778-8.269,22.921-15.256c5.146-6.991,7.713-15.886,7.713-26.442
	c0-10.001-2.401-18.874-7.201-26.486c-4.799-7.612-11.646-10.557-20.558-13.37c-8.912-2.804-24.194-1.951-45.853-1.951h-67.631
	v87.499h72.568C295.877,236.25,308.551,234.587,316.233,232.256L316.233,232.256z M546.875,72.734
	C546.875,32.563,514.312,0,474.141,0H72.734C32.563,0,0,32.563,0,72.734V474.14c0,40.17,32.563,72.734,72.734,72.734H474.14
	c40.171,0,72.734-32.564,72.734-72.734L546.875,72.734L546.875,72.734z M391.794,362.009c-5.958,12.133-13.33,21.486-22.103,28.066
	c-8.775,6.58-19.779,12.162-33.007,15.52c-13.221,3.365-29.435,5.652-48.617,5.652H166.25V109.375h119.963
	c23.029,0,41.496,2.665,55.409,8.759c13.917,6.103,24.811,15.299,32.698,27.978c7.88,12.679,11.819,25.843,11.819,39.686
	c0,12.884-3.5,24.973-10.484,36.348c-6.991,11.384-17.55,20.536-31.662,27.527c18.227,5.346,32.244,14.455,42.044,27.334
	c9.8,12.886,14.7,28.096,14.7,45.643C400.737,336.765,397.758,349.882,391.794,362.009L391.794,362.009z"/>
</svg>
