<?xml version="1.0" encoding="utf-8"?>
<!-- Generator: Adobe Illustrator 16.0.0, SVG Export Plug-In . SVG Version: 6.00 Build 0)  -->
<!DOCTYPE svg PUBLIC "-//W3C//DTD SVG 1.1//EN" "http://www.w3.org/Graphics/SVG/1.1/DTD/svg11.dtd">
<svg version="1.1" id="Layer_1" xmlns="http://www.w3.org/2000/svg" xmlns:xlink="http://www.w3.org/1999/xlink" x="0px" y="0px"
	 width="560px" height="560px" viewBox="0 0 560 560" enable-background="new 0 0 560 560" xml:space="preserve">
<g>
	<g>
		<circle fill="#61DAFB" cx="280" cy="280.001" r="51.013"/>
		<path fill="#61DAFB" d="M473.76,195.874c-9.844-3.58-20.137-7.16-30.875-10.292c2.684-10.74,4.922-21.479,6.711-31.771
			c9.398-59.068-0.895-100.685-29.533-116.793c-8.502-4.923-17.9-7.16-28.639-7.16c-31.324,0-71.15,23.269-111.424,62.2
			c-40.273-38.932-80.1-62.2-111.423-62.2c-10.74,0-20.138,2.236-28.64,7.16c-28.639,16.557-38.931,58.173-29.533,116.793
			c1.789,10.292,4.027,21.031,6.712,31.771c-10.74,3.132-21.032,6.266-30.876,10.292C30.304,217.354-0.125,246.887-0.125,280
			c0,33.114,30.876,62.649,86.364,84.127c9.845,3.58,20.137,7.16,30.876,10.291c-2.685,10.74-4.923,21.48-6.712,31.771
			c-9.397,59.068,0.895,100.685,29.533,116.793c8.502,4.925,17.899,7.16,28.64,7.16c31.771,0,71.597-23.27,111.423-62.198
			c40.274,38.93,80.1,62.198,111.424,62.198c10.738,0,20.137-2.235,28.639-7.16c28.639-16.557,38.932-58.172,29.533-116.793
			c-1.789-10.291-4.027-21.03-6.711-31.771c10.738-3.131,21.031-6.264,30.875-10.291c55.936-21.479,86.365-51.014,86.365-84.127
			S529.695,217.354,473.76,195.874z M407.533,59.393c18.346,10.739,24.611,43.854,17.004,90.839
			c-1.342,9.396-3.58,19.242-6.266,29.534c-23.27-5.37-47.883-8.95-73.834-11.188c-15.217-21.479-30.877-40.721-46.539-58.173
			c33.113-32.667,66.676-55.041,93.973-55.041C397.688,55.364,403.059,56.707,407.533,59.393z M357.414,324.749
			c-8.055,14.32-17.451,28.639-27.297,42.959c-16.559,1.342-33.113,1.789-50.118,1.789c-17.452,0-34.009-0.447-50.118-1.789
			c-9.845-14.32-18.794-28.639-26.849-42.959c-8.502-14.768-16.557-29.98-23.717-44.749c7.16-14.767,15.215-29.98,23.717-44.748
			c8.055-14.318,17.452-28.639,27.297-42.958c16.557-1.343,33.113-1.79,50.118-1.79c17.451,0,34.009,0.447,50.119,1.79
			c9.844,14.319,18.793,28.64,26.848,42.958c8.502,14.768,16.557,29.981,23.717,44.748
			C373.523,294.769,365.916,309.534,357.414,324.749z M394.555,309.981c6.713,15.661,12.082,30.877,17.006,46.092
			c-15.215,3.58-31.324,6.264-48.328,8.502c5.369-8.502,11.186-17.451,16.109-26.851
			C384.711,328.329,389.633,318.933,394.555,309.981L394.555,309.981z M280,431.251c-10.74-11.635-21.032-24.164-30.876-37.143
			c10.292,0.446,20.584,0.896,30.876,0.896c10.293,0,20.584-0.449,30.877-0.896C301.031,407.087,290.74,419.616,280,431.251z
			 M196.767,364.128c-17.004-2.238-33.113-4.922-48.328-8.502c4.922-14.768,10.293-30.43,17.004-46.092
			c4.923,8.951,9.846,18.348,15.215,27.297C186.027,346.677,191.398,355.179,196.767,364.128L196.767,364.128z M165.443,250.021
			c-6.711-15.662-12.082-30.876-17.004-46.092c15.215-3.579,31.324-6.265,48.328-8.502c-5.369,8.502-11.187,17.452-16.108,26.85
			C175.289,231.673,170.367,241.07,165.443,250.021z M280,128.751c10.741,11.635,21.032,24.164,30.877,37.142
			c-10.293-0.447-20.584-0.896-30.877-0.896c-10.292,0-20.584,0.448-30.876,0.896C258.967,152.916,269.259,140.386,280,128.751z
			 M379.342,222.724l-16.109-26.85c17.004,2.237,33.113,4.922,48.328,8.502c-4.924,14.768-10.293,30.43-17.006,46.091
			C389.633,241.07,384.711,231.673,379.342,222.724z M135.462,150.231c-7.607-46.986-1.342-80.101,17.004-90.839
			c4.475-2.686,9.846-4.027,15.662-4.027c26.85,0,60.41,21.927,93.971,55.041c-15.662,17.004-31.323,36.694-46.537,58.173
			c-25.955,2.237-50.566,6.265-73.836,11.188C139.042,169.474,137.252,159.628,135.462,150.231z M24.935,280.001
			c0-21.031,25.506-43.404,70.254-59.962c8.951-3.58,18.795-6.712,28.64-9.396c7.16,22.374,16.108,46.091,26.849,69.808
			c-10.738,23.716-20.137,46.985-26.849,69.358C62.076,331.909,24.935,305.06,24.935,280.001L24.935,280.001z M152.466,500.61
			c-18.347-10.74-24.611-43.854-17.004-90.841c1.342-9.396,3.58-19.241,6.266-29.532c23.269,5.369,47.881,8.948,73.835,11.188
			c15.214,21.479,30.876,40.721,46.537,58.172c-33.113,32.666-66.675,55.041-93.971,55.041
			C162.312,504.638,156.941,503.296,152.466,500.61L152.466,500.61z M424.537,409.771c7.605,46.986,1.342,80.101-17.004,90.841
			c-4.477,2.686-9.848,4.026-15.662,4.026c-26.85,0-60.41-21.928-93.973-55.041c15.66-17.004,31.322-36.692,46.539-58.172
			c25.951-2.238,50.564-6.266,73.834-11.188C420.957,390.528,422.748,400.374,424.537,409.771z M464.811,339.964
			c-8.949,3.58-18.795,6.713-28.639,9.396c-7.16-22.373-16.109-46.09-26.85-69.808c10.74-23.717,20.137-46.984,26.85-69.359
			c61.752,17.898,98.893,44.749,98.893,69.807C535.064,301.032,509.111,323.407,464.811,339.964z"/>
	</g>
	<g>
		<circle fill="#4A90E2" cx="280" cy="280.001" r="51.013"/>
		<path fill="#4A90E2" d="M473.76,195.874c-9.844-3.58-20.137-7.16-30.875-10.292c2.684-10.74,4.922-21.479,6.711-31.771
			c9.398-59.068-0.895-100.685-29.533-116.793c-8.502-4.923-17.9-7.16-28.639-7.16c-31.324,0-71.15,23.269-111.424,62.2
			c-40.273-38.932-80.1-62.2-111.423-62.2c-10.74,0-20.138,2.236-28.64,7.16c-28.639,16.557-38.931,58.173-29.533,116.793
			c1.789,10.292,4.027,21.031,6.712,31.771c-10.74,3.132-21.032,6.266-30.876,10.292C30.304,217.354-0.125,246.887-0.125,280
			c0,33.114,30.876,62.649,86.364,84.127c9.845,3.58,20.137,7.16,30.876,10.291c-2.685,10.74-4.923,21.48-6.712,31.771
			c-9.397,59.068,0.895,100.685,29.533,116.793c8.502,4.925,17.899,7.16,28.64,7.16c31.771,0,71.597-23.27,111.423-62.198
			c40.274,38.93,80.1,62.198,111.424,62.198c10.738,0,20.137-2.235,28.639-7.16c28.639-16.557,38.932-58.172,29.533-116.793
			c-1.789-10.291-4.027-21.03-6.711-31.771c10.738-3.131,21.031-6.264,30.875-10.291c55.936-21.479,86.365-51.014,86.365-84.127
			S529.695,217.354,473.76,195.874z M407.533,59.393c18.346,10.739,24.611,43.854,17.004,90.839
			c-1.342,9.396-3.58,19.242-6.266,29.534c-23.27-5.37-47.883-8.95-73.834-11.188c-15.217-21.479-30.877-40.721-46.539-58.173
			c33.113-32.667,66.676-55.041,93.973-55.041C397.688,55.364,403.059,56.707,407.533,59.393z M357.414,324.749
			c-8.055,14.32-17.451,28.639-27.297,42.959c-16.559,1.342-33.113,1.789-50.118,1.789c-17.452,0-34.009-0.447-50.118-1.789
			c-9.845-14.32-18.794-28.639-26.849-42.959c-8.502-14.768-16.557-29.98-23.717-44.749c7.16-14.767,15.215-29.98,23.717-44.748
			c8.055-14.318,17.452-28.639,27.297-42.958c16.557-1.343,33.113-1.79,50.118-1.79c17.451,0,34.009,0.447,50.119,1.79
			c9.844,14.319,18.793,28.64,26.848,42.958c8.502,14.768,16.557,29.981,23.717,44.748
			C373.523,294.769,365.916,309.534,357.414,324.749z M394.555,309.981c6.713,15.661,12.082,30.877,17.006,46.092
			c-15.215,3.58-31.324,6.264-48.328,8.502c5.369-8.502,11.186-17.451,16.109-26.851
			C384.711,328.329,389.633,318.933,394.555,309.981L394.555,309.981z M280,431.251c-10.74-11.635-21.032-24.164-30.876-37.143
			c10.292,0.446,20.584,0.896,30.876,0.896c10.293,0,20.584-0.449,30.877-0.896C301.031,407.087,290.74,419.616,280,431.251z
			 M196.767,364.128c-17.004-2.238-33.113-4.922-48.328-8.502c4.922-14.768,10.293-30.43,17.004-46.092
			c4.923,8.951,9.846,18.348,15.215,27.297C186.027,346.677,191.398,355.179,196.767,364.128L196.767,364.128z M165.443,250.021
			c-6.711-15.662-12.082-30.876-17.004-46.092c15.215-3.579,31.324-6.265,48.328-8.502c-5.369,8.502-11.187,17.452-16.108,26.85
			C175.289,231.673,170.367,241.07,165.443,250.021z M280,128.751c10.741,11.635,21.032,24.164,30.877,37.142
			c-10.293-0.447-20.584-0.896-30.877-0.896c-10.292,0-20.584,0.448-30.876,0.896C258.967,152.916,269.259,140.386,280,128.751z
			 M379.342,222.724l-16.109-26.85c17.004,2.237,33.113,4.922,48.328,8.502c-4.924,14.768-10.293,30.43-17.006,46.091
			C389.633,241.07,384.711,231.673,379.342,222.724z M135.462,150.231c-7.607-46.986-1.342-80.101,17.004-90.839
			c4.475-2.686,9.846-4.027,15.662-4.027c26.85,0,60.41,21.927,93.971,55.041c-15.662,17.004-31.323,36.694-46.537,58.173
			c-25.955,2.237-50.566,6.265-73.836,11.188C139.042,169.474,137.252,159.628,135.462,150.231z M24.935,280.001
			c0-21.031,25.506-43.404,70.254-59.962c8.951-3.58,18.795-6.712,28.64-9.396c7.16,22.374,16.108,46.091,26.849,69.808
			c-10.738,23.716-20.137,46.985-26.849,69.358C62.076,331.909,24.935,305.06,24.935,280.001L24.935,280.001z M152.466,500.61
			c-18.347-10.74-24.611-43.854-17.004-90.841c1.342-9.396,3.58-19.241,6.266-29.532c23.269,5.369,47.881,8.948,73.835,11.188
			c15.214,21.479,30.876,40.721,46.537,58.172c-33.113,32.666-66.675,55.041-93.971,55.041
			C162.312,504.638,156.941,503.296,152.466,500.61L152.466,500.61z M424.537,409.771c7.605,46.986,1.342,80.101-17.004,90.841
			c-4.477,2.686-9.848,4.026-15.662,4.026c-26.85,0-60.41-21.928-93.973-55.041c15.66-17.004,31.322-36.692,46.539-58.172
			c25.951-2.238,50.564-6.266,73.834-11.188C420.957,390.528,422.748,400.374,424.537,409.771z M464.811,339.964
			c-8.949,3.58-18.795,6.713-28.639,9.396c-7.16-22.373-16.109-46.09-26.85-69.808c10.74-23.717,20.137-46.984,26.85-69.359
			c61.752,17.898,98.893,44.749,98.893,69.807C535.064,301.032,509.111,323.407,464.811,339.964z"/>
	</g>
</g>
</svg>
