<?xml version="1.0" encoding="utf-8"?>
<!-- Generator: Adobe Illustrator 16.0.0, SVG Export Plug-In . SVG Version: 6.00 Build 0)  -->
<!DOCTYPE svg PUBLIC "-//W3C//DTD SVG 1.1//EN" "http://www.w3.org/Graphics/SVG/1.1/DTD/svg11.dtd">
<svg version="1.1" id="Layer_1" xmlns="http://www.w3.org/2000/svg" xmlns:xlink="http://www.w3.org/1999/xlink" x="0px" y="0px"
	 width="541px" height="541px" viewBox="0 0 541 541" enable-background="new 0 0 541 541" xml:space="preserve">
<g>
	<path fill="#4A90E2" d="M475.031,213.625h-21l-5.25,26.25h-16.625l5.25-26.25h-21.438l-5.25,26.25H387.53v21.875h19.25l-3.938,17.5
		H387.53v21.875h10.938l-5.25,26.25h21l5.25-26.25h16.625l-5.25,26.25h21.438l5.25-26.25h21.875V279.25h-17.938l3.938-17.5h14
		v-21.875h-9.625L475.031,213.625z M440.469,279.25h-16.625l3.938-17.5h16.625L440.469,279.25z M507.844,136.188
		c-2.625-4.812-6.125-9.188-10.062-11.375L287.344,3.188c-3.5-2.188-8.312-3.062-13.562-3.062s-10.062,1.312-13.562,3.062
		L48.031,124.813c-7.437,4.374-14.875,15.312-14.875,23.624v243.688c0,4.812,3.062,10.062,6.125,14.875l0.438,0.438
		c2.188,3.5,5.688,6.562,8.75,8.312l211.312,122.062c3.5,2.188,8.75,3.062,14,3.062s10.062-1.312,13.562-3.062L495.156,415.75
		c7.438-4.375,10.5-15.312,10.5-23.625V148.438c0-3.5,1.75-7.875,0-11.375L507.844,136.188z M489.469,145.375
		c0,1.312-1.312,2.188-1.312,3.062v243.688c0,3.5-0.875,7.438-1.75,8.75L278.156,522.5c-0.438,0.438-2.188,0.875-4.812,0.875
		c-2.622,0-4.375-0.438-4.812-0.875L57.656,400.875c0,0-0.438-0.438-0.875-0.438l-2.625-2.625c-1.75-3.061,0.875-4.811-3.5-5.25
		V148.875c4.375-2.188,3.938-7.438,6.125-8.312L268.094,18.5c0.438,0,2.625-0.875,5.25-0.875s4.375,0.438,4.812,0.875l210,121.188
		l1.75,3.938C490.344,144.063,489.469,144.938,489.469,145.375L489.469,145.375z M273.781,377.688
		c-59.062,0-107.188-48.125-107.188-107.188s48.125-107.188,107.188-107.188c39.812,0,74.812,21.875,93.188,54.688l56.875-32.812
		c-29.75-52.062-85.75-87.5-150.062-87.5c-95.375,0-172.812,77.438-172.812,172.812c0,95.374,77.438,172.811,172.812,172.811
		c63.875,0,119.875-35,149.625-86.625l-56.438-33.25C348.594,355.812,313.594,377.688,273.781,377.688z"/>
</g>
</svg>
