<?xml version="1.0" encoding="utf-8"?>
<!-- Generator: Adobe Illustrator 16.0.0, SVG Export Plug-In . SVG Version: 6.00 Build 0)  -->
<!DOCTYPE svg PUBLIC "-//W3C//DTD SVG 1.1//EN" "http://www.w3.org/Graphics/SVG/1.1/DTD/svg11.dtd">
<svg version="1.1" id="Layer_1" xmlns="http://www.w3.org/2000/svg" xmlns:xlink="http://www.w3.org/1999/xlink" x="0px" y="0px"
	 width="560px" height="560px" viewBox="0 0 560 560" enable-background="new 0 0 560 560" xml:space="preserve">
<path fill="#4A90E2" d="M34.143,0.8l44.75,502.411L279.703,559.2l201.368-56.194L525.857,0.8H34.143L34.143,0.8z M432.887,115.904
	l-14.897,167.368l0.045,0.906l-0.062,2.078v-0.02l-10.584,117.025l-1.165,10.397L280,448.573v0.005l-0.099,0.084l-126.005-35.106
	l-8.531-96.755h61.787l4.387,49.198l68.477,18.561L280,384.594v-0.01l68.73-18.822l7.266-80.117H212.312l-1.232-13.542l-2.81-31.729
	l-1.472-17.038h154.656l5.627-62.31H131.523l-1.231-13.534l-2.805-31.738l-1.478-17.037H434.36L432.887,115.904L432.887,115.904z"/>
</svg>
