<?xml version="1.0" encoding="utf-8"?>
<!-- Generator: Adobe Illustrator 16.0.0, SVG Export Plug-In . SVG Version: 6.00 Build 0)  -->
<!DOCTYPE svg PUBLIC "-//W3C//DTD SVG 1.1//EN" "http://www.w3.org/Graphics/SVG/1.1/DTD/svg11.dtd">
<svg version="1.1" id="Layer_1" xmlns="http://www.w3.org/2000/svg" xmlns:xlink="http://www.w3.org/1999/xlink" x="0px" y="0px"
	 width="560px" height="560px" viewBox="0 0 560 560" enable-background="new 0 0 560 560" xml:space="preserve">
<path fill="#4A90E2" d="M549.402,255.068L304.991,10.67c-14.068-14.075-36.895-14.075-50.985,0l-50.741,50.757l64.378,64.378
	c14.966-5.051,32.118-1.664,44.042,10.262c11.985,12,15.353,29.297,10.166,44.313l62.047,62.055
	c15.014-5.174,32.338-1.831,44.321,10.178c16.759,16.748,16.759,43.899,0,60.657c-16.765,16.764-43.907,16.764-60.677,0
	c-12.604-12.61-15.721-31.124-9.335-46.653l-57.86-57.864l-0.01,152.281c4.088,2.017,7.941,4.712,11.348,8.104
	c16.76,16.747,16.76,43.894,0,60.675c-16.758,16.748-43.917,16.748-60.658,0c-16.753-16.779-18.127-43.924-1.379-60.675
	c4.142-4.137,8.226-7.263,12.66-9.355V206.091c-4.434-2.093-8.514-5.197-12.665-9.362c-12.687-12.682-15.057-31.306-8.549-46.897
	l-63.117-63.47L10.564,253.938c-14.08,14.087-13.99,36.917,0.089,50.995l244.45,244.397c14.071,14.076,36.916,14.076,51.008,0
	l243.272-243.262C563.463,291.985,563.477,269.144,549.402,255.068L549.402,255.068z"/>
</svg>
