<?xml version="1.0" encoding="utf-8"?>
<!-- Generator: Adobe Illustrator 16.0.0, SVG Export Plug-In . SVG Version: 6.00 Build 0)  -->
<!DOCTYPE svg PUBLIC "-//W3C//DTD SVG 1.1//EN" "http://www.w3.org/Graphics/SVG/1.1/DTD/svg11.dtd">
<svg version="1.1" id="Layer_1" xmlns="http://www.w3.org/2000/svg" xmlns:xlink="http://www.w3.org/1999/xlink" x="0px" y="0px"
	 width="24px" height="24px" viewBox="0 0 24 24" enable-background="new 0 0 24 24" xml:space="preserve">
<path fill="#4A90E2" d="M12,0.296c-6.626,0-12,5.373-12,12c0,5.302,3.438,9.8,8.207,11.387C8.806,23.794,9,23.422,9,23.106v-2.233
	c-3.338,0.726-4.033-1.416-4.033-1.416c-0.546-1.388-1.333-1.756-1.333-1.756c-1.089-0.745,0.083-0.729,0.083-0.729
	c1.205,0.084,1.839,1.237,1.839,1.237c1.07,1.834,2.807,1.304,3.492,0.997c0.107-0.775,0.418-1.307,0.762-1.604
	c-2.665-0.307-5.467-1.336-5.467-5.933c0-1.311,0.469-2.381,1.236-3.221C5.455,8.146,5.044,6.925,5.696,5.273
	c0,0,1.008-0.322,3.301,1.23C9.954,6.237,10.98,6.104,12,6.099c1.02,0.005,2.047,0.138,3.006,0.404
	c2.291-1.552,3.297-1.23,3.297-1.23c0.653,1.653,0.242,2.874,0.118,3.176c0.771,0.84,1.235,1.911,1.235,3.221
	c0,4.608-2.807,5.624-5.479,5.921C14.607,17.963,15,18.692,15,19.813v3.293c0,0.318,0.191,0.693,0.801,0.575
	C20.566,22.093,24,17.596,24,12.296C24,5.669,18.627,0.296,12,0.296z"/>
</svg>
