<?xml version="1.0" encoding="utf-8"?>
<!-- Generator: Adobe Illustrator 16.0.0, SVG Export Plug-In . SVG Version: 6.00 Build 0)  -->
<!DOCTYPE svg PUBLIC "-//W3C//DTD SVG 1.1//EN" "http://www.w3.org/Graphics/SVG/1.1/DTD/svg11.dtd">
<svg version="1.1" id="Layer_1" xmlns="http://www.w3.org/2000/svg" xmlns:xlink="http://www.w3.org/1999/xlink" x="0px" y="0px"
	 width="560px" height="560px" viewBox="0 0 560 560" enable-background="new 0 0 560 560" xml:space="preserve">
<path fill="#4A90E2" d="M32.229-0.581l45.099,505.264l202.37,55.896l202.929-55.834L527.771-0.581H32.229z M433.969,119.045
	l-2.826,32.328l-1.245,14.825H192.509l5.666,63.105h226.079l-1.514,15.646l-14.573,162.808l-1.072,10.232L280,452.918v0.01
	l-0.152,0.082l-127.009-33.461l-8.622-95.586h62.271l4.412,49.219l68.907,18.395H280v-2.461l69.213-17.467l7.232-79.238H141.444
	l-15.25-171.814l-1.482-17.503h310.745L433.969,119.045L433.969,119.045z"/>
</svg>
