<?xml version="1.0" encoding="utf-8"?>
<!-- Generator: Adobe Illustrator 16.0.0, SVG Export Plug-In . SVG Version: 6.00 Build 0)  -->
<!DOCTYPE svg PUBLIC "-//W3C//DTD SVG 1.1//EN" "http://www.w3.org/Graphics/SVG/1.1/DTD/svg11.dtd">
<svg version="1.1" id="Layer_1" xmlns="http://www.w3.org/2000/svg" xmlns:xlink="http://www.w3.org/1999/xlink" x="0px" y="0px"
	 width="560px" height="560px" viewBox="0 0 560 560" enable-background="new 0 0 560 560" xml:space="preserve">
<path fill="#4A90E2" d="M513.144,429.188L289.8,555.625v-98.481l138.95-76.519L513.144,429.188z M528.456,415.362V151.156
	l-81.725,47.25V368.2l81.681,47.118L528.456,415.362z M46.856,429.188l223.125,126.351v-98.395l-138.995-76.519L46.856,429.188z
	 M31.544,415.362V151.156l81.726,47.25V368.2L31.544,415.362z M41.125,134.05L270.2,4.375v95.2l-146.781,80.719l-1.183,0.656
	L41.125,134.05z M518.787,134.05L289.8,4.375v95.2l146.781,80.675l1.182,0.656l81.112-46.856H518.787z M270.2,434.744
	l-137.332-75.558V209.65l137.332,79.1V434.744z M289.8,434.744l137.331-75.469V209.65L289.8,288.75V434.744z M142.188,192.5
	L280,116.638L417.812,192.5L280,271.95L142.188,192.5z"/>
</svg>
